<?xml version="1.0" encoding="utf-8"?>
<!-- Generator: Adobe Illustrator 19.0.0, SVG Export Plug-In . SVG Version: 6.00 Build 0)  -->
<svg version="1.1" id="Capa_1" xmlns="http://www.w3.org/2000/svg" xmlns:xlink="http://www.w3.org/1999/xlink" x="0px" y="0px"
	 viewBox="0 0 508.1 135.1" style="enable-background:new 0 0 508.1 135.1;" xml:space="preserve">
<style type="text/css">
	.st0{fill:url(#XMLID_54_);}
	.st1{fill:none;}
	.st2{fill:url(#XMLID_55_);}
	.st3{fill:url(#XMLID_56_);}
	.st4{fill:url(#XMLID_57_);}
	.st5{fill:url(#XMLID_58_);}
	.st6{fill:url(#XMLID_59_);}
	.st7{fill:url(#XMLID_60_);}
	.st8{fill:url(#XMLID_61_);}
	.st9{fill:#354B59;}
	.st10{font-family:'Roboto-Light';}
	.st11{font-size:9.7405px;}
</style>
<g id="XMLID_80_">
	<g id="XMLID_144_">
		
			<linearGradient id="XMLID_54_" gradientUnits="userSpaceOnUse" x1="149.8928" y1="300.4113" x2="149.8928" y2="240.0052" gradientTransform="matrix(1.0155 1.339925e-02 1.339925e-02 1.0946 -104.3782 -230.3291)">
			<stop  offset="0" style="stop-color:#CB6990"/>
			<stop  offset="0.5" style="stop-color:#BF3079"/>
			<stop  offset="1" style="stop-color:#74214D"/>
		</linearGradient>
		<path id="XMLID_158_" class="st0" d="M51.6,33.3c7,0.2,10.3,0.8,11.1,1c-12.7,0.8-23.4,7.3-28,18.8c-0.2,0.5-0.4,1.1-0.6,1.6
			c-0.1,0.2-0.1,0.3-0.2,0.5c-0.1,0.4-0.2,0.8-0.4,1.2c-0.1,0.2-0.1,0.4-0.2,0.6c-0.1,0.4-0.2,0.8-0.3,1.2c0,0.2-0.1,0.3-0.1,0.5
			c-0.1,0.6-0.2,1.1-0.3,1.7c0,0.1,0,0.1,0,0.2c-0.1,0.5-0.1,1.1-0.2,1.6c0,0.2,0,0.4,0,0.6c0,0.4-0.1,0.8-0.1,1.2
			c0,0.2,0,0.4,0,0.6c0,0.4,0,0.9,0,1.3c0,0.2,0,0.3,0,0.5c0,0.6,0,1.2,0.1,1.8c0,0.1,0,0.2,0,0.3c0,0.5,0.1,1,0.2,1.5
			c0,0.2,0.1,0.4,0.1,0.6c0.1,0.4,0.1,0.8,0.2,1.3c0,0.2,0.1,0.4,0.1,0.6c0.1,0.4,0.2,0.9,0.3,1.3c0,0.2,0.1,0.3,0.1,0.5
			c0.1,0.6,0.3,1.2,0.4,1.8c0,0.1,0.1,0.2,0.1,0.4c0.1,0.5,0.3,0.9,0.4,1.4c0.2,0.5,0.3,1,0.5,1.4c0.1,0.2,0.2,0.5,0.2,0.7
			c0.3,0.7,0.5,1.4,0.8,2.1c0,0,0,0.1,0,0.1c0.3,0.7,0.6,1.3,0.9,2c0.1,0.2,0.2,0.5,0.3,0.7c0.2,0.5,0.5,0.9,0.7,1.4
			c0.1,0.3,0.3,0.5,0.4,0.8c0.2,0.4,0.5,0.9,0.7,1.3c0.2,0.3,0.3,0.5,0.5,0.8c0.3,0.4,0.5,0.8,0.8,1.2c0.2,0.3,0.3,0.5,0.5,0.8
			c0.3,0.4,0.6,0.8,0.9,1.3c0.2,0.2,0.3,0.5,0.5,0.7c0.4,0.5,0.7,1,1.1,1.4c0.1,0.2,0.2,0.3,0.4,0.5c0.6,0.7,1.1,1.4,1.7,2
			c0.2,0.2,0.3,0.4,0.5,0.5c0.5,0.5,0.9,1,1.4,1.5c0.2,0.2,0.4,0.4,0.6,0.6c0.5,0.5,1.1,1,1.6,1.5c0.1,0.1,0.2,0.2,0.4,0.4
			c0.7,0.6,1.4,1.2,2.1,1.8c0.2,0.2,0.4,0.3,0.6,0.5c0.5,0.4,0.9,0.7,1.4,1.1c0.3,0.2,0.5,0.4,0.8,0.6c0.4,0.3,0.9,0.7,1.4,1
			c0.3,0.2,0.5,0.4,0.8,0.5c0.5,0.3,1,0.7,1.5,1c0.2,0.1,0.5,0.3,0.7,0.4c0.8,0.5,1.5,0.9,2.3,1.3c1,0.6,2,1.1,3.1,1.5
			c0.3,0.2,0.7,0.3,1,0.4c0.7,0.3,1.4,0.6,2.1,0.9c0.8,0.3,1.6,0.6,2.4,0.9c0,0,0,0,0,0c0.8,0.3,1.7,0.6,2.5,0.8
			c0.2,0.1,0.5,0.1,0.7,0.2c0.7,0.2,1.3,0.4,2,0.5c0.2,0,0.4,0.1,0.6,0.1c0.8,0.2,1.7,0.3,2.5,0.5c0.2,0,0.4,0.1,0.6,0.1
			c0.3,0,0.6,0.1,0.9,0.1c-2.4,0.1-9.2,0.2-17.5-1.4c-3-1-5.9-2.3-8.9-3.9C30.5,98,18.3,71.9,26.2,52.3C30.5,41.6,40.1,35,51.6,33.3
			z"/>
		<path id="XMLID_157_" class="st1" d="M81.3,21.2c-1.7-0.3-3.4-0.4-5.1-0.3C59,21.7,42.8,41.4,38.6,66.6
			c-3.9,23.4,3.3,45,16.7,53.5c0.6,0.1,1.2,0.3,1.8,0.4c0.6,0.1,1.2,0.2,1.8,0.2c0.1,0,0.3,0,0.4,0c0.3,0,0.6,0,1,0
			c0.2,0,0.3,0,0.5,0c0.5,0,0.9,0,1.4,0c0.5,0,1-0.1,1.5-0.1c0.1,0,0.3,0,0.4-0.1c0.4,0,0.7-0.1,1.1-0.2c0.1,0,0.3,0,0.4-0.1
			c0.5-0.1,1-0.2,1.4-0.3c0,0,0.1,0,0.1,0c0.5-0.1,1-0.3,1.4-0.4c0.2-0.1,0.3-0.1,0.5-0.2c0.3-0.1,0.7-0.2,1-0.4
			c0.2-0.1,0.4-0.2,0.6-0.2c0.3-0.1,0.6-0.2,0.9-0.4c0.2-0.1,0.4-0.2,0.6-0.3c0.3-0.1,0.6-0.3,0.8-0.4c0.2-0.1,0.5-0.3,0.7-0.4
			c0.3-0.1,0.5-0.3,0.8-0.4c0.2-0.1,0.5-0.3,0.7-0.4c0.3-0.2,0.5-0.3,0.8-0.5c0.2-0.2,0.5-0.3,0.7-0.5c0.2-0.2,0.5-0.3,0.7-0.5
			c0.2-0.2,0.5-0.3,0.7-0.5c0.2-0.2,0.5-0.4,0.7-0.5c0.5-0.4,0.9-0.7,1.4-1.1c0.1-0.1,0.2-0.1,0.3-0.2c0.5-0.5,1.1-1,1.6-1.5
			c0.1-0.1,0.3-0.3,0.4-0.4c0.4-0.4,0.7-0.7,1.1-1.1c0.2-0.2,0.4-0.4,0.5-0.6c0.3-0.4,0.7-0.8,1-1.2c0.2-0.2,0.3-0.4,0.5-0.6
			c0.2-0.3,0.4-0.5,0.7-0.8c0.2-0.3,0.4-0.5,0.6-0.8c0.2-0.3,0.4-0.6,0.6-0.8c0.2-0.3,0.4-0.5,0.6-0.8c0.2-0.3,0.4-0.6,0.6-0.9
			c0.2-0.3,0.4-0.5,0.6-0.8c0.2-0.3,0.4-0.6,0.6-0.9c0.2-0.3,0.4-0.6,0.5-0.9c0.2-0.3,0.4-0.6,0.6-1c0.2-0.3,0.3-0.6,0.5-0.9
			c0.2-0.3,0.4-0.7,0.5-1c0.2-0.3,0.3-0.6,0.5-0.9c0.2-0.3,0.3-0.7,0.5-1c0.2-0.3,0.3-0.6,0.5-0.9c0.2-0.4,0.3-0.7,0.5-1.1
			c0.1-0.3,0.3-0.6,0.4-0.9c0.2-0.4,0.3-0.7,0.5-1.1c0.1-0.3,0.3-0.6,0.4-1c0.2-0.4,0.3-0.8,0.4-1.1c0.1-0.3,0.3-0.6,0.4-1
			c0.1-0.4,0.3-0.8,0.4-1.2c0.1-0.3,0.2-0.7,0.3-1c0.1-0.4,0.3-0.8,0.4-1.2c0.1-0.3,0.2-0.7,0.3-1c0.1-0.4,0.2-0.9,0.4-1.3
			c0.1-0.3,0.2-0.6,0.3-1c0.1-0.5,0.2-0.9,0.3-1.4c0.1-0.3,0.2-0.6,0.2-0.9c0.1-0.5,0.2-1,0.3-1.6c0.1-0.3,0.1-0.5,0.2-0.8
			c0.2-0.8,0.3-1.6,0.4-2.4c2.3-13.7,0.9-27.2-4-37.9c-3.1-6.9-7.4-12.2-12.5-15.4c-0.2,0-0.2,0-0.2,0s0.1,0,0.2,0
			c-0.1,0-0.1-0.1-0.2-0.1C82.6,21.4,81.9,21.3,81.3,21.2z"/>
		<path id="XMLID_156_" class="st1" d="M81.3,21.2c-1.7-0.3-3.4-0.4-5.1-0.3C59,21.7,42.8,41.4,38.6,66.6
			c-3.9,23.4,3.3,45,16.7,53.5c0,0,0,0,0.1,0c-0.1-0.1-0.2-0.2-0.2-0.2s0.1,0.1,0.2,0.2c0.6,0.1,1.2,0.3,1.7,0.4
			c0.6,0.1,1.2,0.2,1.8,0.2c0.1,0,0.3,0,0.4,0c0.3,0,0.6,0,1,0c0.2,0,0.3,0,0.5,0c0.5,0,0.9,0,1.4,0c0.5,0,1-0.1,1.5-0.1
			c0.1,0,0.3,0,0.4-0.1c0.4,0,0.7-0.1,1.1-0.2c0.1,0,0.3,0,0.4-0.1c0.5-0.1,1-0.2,1.4-0.3c0,0,0.1,0,0.1,0c0.5-0.1,1-0.3,1.4-0.4
			c0.2-0.1,0.3-0.1,0.5-0.2c0.3-0.1,0.7-0.2,1-0.4c0.2-0.1,0.4-0.2,0.6-0.2c0.3-0.1,0.6-0.2,0.9-0.4c0.2-0.1,0.4-0.2,0.6-0.3
			c0.3-0.1,0.6-0.3,0.8-0.4c0.2-0.1,0.5-0.3,0.7-0.4c0.3-0.1,0.5-0.3,0.8-0.4c0.2-0.1,0.5-0.3,0.7-0.4c0.3-0.2,0.5-0.3,0.8-0.5
			c0.2-0.2,0.5-0.3,0.7-0.5c0.2-0.2,0.5-0.3,0.7-0.5c0.2-0.2,0.5-0.3,0.7-0.5c0.2-0.2,0.5-0.4,0.7-0.5c0.5-0.4,0.9-0.7,1.4-1.1
			c0.1-0.1,0.2-0.1,0.3-0.2c0.5-0.5,1.1-1,1.6-1.5c0.1-0.1,0.3-0.3,0.4-0.4c0.4-0.4,0.7-0.7,1.1-1.1c0.2-0.2,0.4-0.4,0.5-0.6
			c0.3-0.4,0.7-0.8,1-1.2c0.2-0.2,0.3-0.4,0.5-0.6c0.2-0.3,0.4-0.5,0.7-0.8c0.2-0.3,0.4-0.5,0.6-0.8c0.2-0.3,0.4-0.6,0.6-0.8
			c0.2-0.3,0.4-0.5,0.6-0.8c0.2-0.3,0.4-0.6,0.6-0.9c0.2-0.3,0.4-0.5,0.6-0.8c0.2-0.3,0.4-0.6,0.6-0.9c0.2-0.3,0.4-0.6,0.5-0.9
			c0.2-0.3,0.4-0.6,0.6-1c0.2-0.3,0.3-0.6,0.5-0.9c0.2-0.3,0.4-0.7,0.5-1c0.2-0.3,0.3-0.6,0.5-0.9c0.2-0.3,0.3-0.7,0.5-1
			c0.2-0.3,0.3-0.6,0.5-0.9c0.2-0.4,0.3-0.7,0.5-1.1c0.1-0.3,0.3-0.6,0.4-0.9c0.2-0.4,0.3-0.7,0.5-1.1c0.1-0.3,0.3-0.6,0.4-1
			c0.2-0.4,0.3-0.8,0.4-1.1c0.1-0.3,0.3-0.6,0.4-1c0.1-0.4,0.3-0.8,0.4-1.2c0.1-0.3,0.2-0.7,0.3-1c0.1-0.4,0.3-0.8,0.4-1.2
			c0.1-0.3,0.2-0.7,0.3-1c0.1-0.4,0.2-0.9,0.4-1.3c0.1-0.3,0.2-0.6,0.3-1c0.1-0.5,0.2-0.9,0.3-1.4c0.1-0.3,0.2-0.6,0.2-0.9
			c0.1-0.5,0.2-1,0.3-1.6c0.1-0.3,0.1-0.5,0.2-0.8c0.2-0.8,0.3-1.6,0.4-2.4c2.3-13.7,0.9-27.2-4-37.9c-3.1-6.9-7.4-12.2-12.5-15.4
			c-0.1,0-0.1-0.1-0.2-0.1C82.6,21.4,81.9,21.3,81.3,21.2z"/>
		<path id="XMLID_155_" class="st1" d="M67.1,43.3C42.5,44.5,22.6,61.8,22.8,82c0.1,12.2,7.5,22.6,18.7,28.7
			c0.4,0.1,0.8,0.3,1.2,0.4c0.2,0.1,0.4,0.1,0.5,0.2c0.8,0.2,1.6,0.5,2.4,0.7c0.2,0,0.4,0.1,0.6,0.1c0.7,0.2,1.3,0.3,2,0.4
			c0.2,0,0.5,0.1,0.7,0.1c0.9,0.1,1.7,0.3,2.6,0.4c0,0,0,0,0,0c0.8,0.1,1.6,0.2,2.5,0.2c0.7,0.1,1.5,0.1,2.2,0.1c0.4,0,0.7,0,1.1,0
			c1.1,0,2.2,0,3.3-0.1c0.9,0,1.7-0.1,2.5-0.2c0.3,0,0.5-0.1,0.8-0.1c0.6-0.1,1.1-0.1,1.7-0.2c0.3,0,0.6-0.1,0.9-0.1
			c0.5-0.1,1.1-0.2,1.6-0.3c0.3-0.1,0.6-0.1,0.9-0.2c0.5-0.1,1.1-0.2,1.6-0.4c0.3-0.1,0.5-0.1,0.8-0.2c0.8-0.2,1.7-0.4,2.5-0.7
			c0.2,0,0.3-0.1,0.5-0.2c0.7-0.2,1.3-0.4,2-0.7c0.3-0.1,0.5-0.2,0.8-0.3c0.6-0.2,1.2-0.5,1.8-0.7c0.2-0.1,0.4-0.2,0.6-0.3
			c0.8-0.3,1.5-0.7,2.3-1.1c0.2-0.1,0.3-0.2,0.5-0.3c0.5-0.3,1-0.5,1.5-0.8c0.2-0.1,0.5-0.3,0.7-0.4c0.4-0.2,0.8-0.5,1.2-0.7
			c0.3-0.2,0.5-0.3,0.7-0.5c0.4-0.2,0.8-0.5,1.1-0.8c0.2-0.2,0.5-0.3,0.7-0.5c0.4-0.3,0.7-0.5,1.1-0.8c0.2-0.2,0.4-0.3,0.7-0.5
			c0.4-0.3,0.8-0.6,1.1-0.9c0.2-0.2,0.4-0.3,0.5-0.5c0.5-0.4,1-0.9,1.5-1.4c0,0,0.1-0.1,0.1-0.1c0.5-0.5,1-1,1.5-1.5
			c0.2-0.2,0.3-0.3,0.5-0.5c0.3-0.4,0.6-0.7,1-1.1c0.3-0.3,0.6-0.7,0.9-1c0.1-0.1,0.1-0.2,0.2-0.3c0.4-0.5,0.7-0.9,1-1.4
			c0.1-0.1,0.2-0.3,0.3-0.4c0.2-0.4,0.5-0.7,0.7-1.1c0.1-0.2,0.2-0.3,0.3-0.5c0.2-0.3,0.4-0.7,0.6-1c0.1-0.2,0.2-0.3,0.3-0.5
			c0.2-0.4,0.5-0.9,0.7-1.3c0-0.1,0.1-0.2,0.1-0.2c0.3-0.5,0.5-1,0.7-1.5c0.1-0.1,0.1-0.3,0.2-0.4c0.2-0.4,0.3-0.8,0.5-1.1
			c0.1-0.2,0.1-0.4,0.2-0.6c0.1-0.4,0.3-0.7,0.4-1.1c0.1-0.2,0.1-0.3,0.2-0.5c0.1-0.5,0.3-1,0.4-1.5c0-0.1,0-0.1,0-0.2
			c0.1-0.5,0.2-1.1,0.3-1.7c0-0.2,0.1-0.3,0.1-0.5c0.1-0.4,0.1-0.8,0.2-1.2c0-0.2,0-0.4,0.1-0.6c0-0.4,0.1-0.8,0.1-1.2
			c0-0.2,0-0.4,0-0.5c0-0.6,0-1.1,0-1.7c-0.1-12.1-7.5-22.5-18.7-28.6c-0.1,0-0.2-0.1-0.2-0.1s0.1,0,0.2,0.1c-0.1,0-0.1-0.1-0.2-0.1
			C80.3,43.9,73.9,42.9,67.1,43.3z"/>
		<path id="XMLID_154_" class="st1" d="M67.1,43.3C42.5,44.5,22.6,61.8,22.8,82c0.1,12.2,7.5,22.6,18.7,28.7c0.1,0,0.3,0.1,0.4,0.1
			c-0.6-0.3-0.9-0.5-0.9-0.5s0.3,0.2,0.9,0.5c0.3,0.1,0.6,0.2,0.8,0.3c0.2,0.1,0.4,0.1,0.5,0.2c0.8,0.2,1.6,0.5,2.4,0.7
			c0.2,0,0.4,0.1,0.6,0.1c0.7,0.2,1.3,0.3,2,0.4c0.2,0,0.5,0.1,0.7,0.1c0.9,0.1,1.7,0.3,2.6,0.4c0,0,0,0,0,0
			c0.8,0.1,1.6,0.2,2.5,0.2c0.7,0.1,1.5,0.1,2.2,0.1c0.4,0,0.7,0,1.1,0c1.1,0,2.2,0,3.3-0.1c0.9,0,1.7-0.1,2.5-0.2
			c0.3,0,0.5-0.1,0.8-0.1c0.6-0.1,1.1-0.1,1.7-0.2c0.3,0,0.6-0.1,0.9-0.1c0.5-0.1,1.1-0.2,1.6-0.3c0.3-0.1,0.6-0.1,0.9-0.2
			c0.5-0.1,1.1-0.2,1.6-0.4c0.3-0.1,0.5-0.1,0.8-0.2c0.8-0.2,1.7-0.4,2.5-0.7c0.2,0,0.3-0.1,0.5-0.2c0.7-0.2,1.3-0.4,2-0.7
			c0.3-0.1,0.5-0.2,0.8-0.3c0.6-0.2,1.2-0.5,1.8-0.7c0.2-0.1,0.4-0.2,0.6-0.3c0.8-0.3,1.5-0.7,2.3-1.1c0.2-0.1,0.3-0.2,0.5-0.3
			c0.5-0.3,1-0.5,1.5-0.8c0.2-0.1,0.5-0.3,0.7-0.4c0.4-0.2,0.8-0.5,1.2-0.7c0.3-0.2,0.5-0.3,0.7-0.5c0.4-0.2,0.8-0.5,1.1-0.8
			c0.2-0.2,0.5-0.3,0.7-0.5c0.4-0.3,0.7-0.5,1.1-0.8c0.2-0.2,0.4-0.3,0.7-0.5c0.4-0.3,0.8-0.6,1.1-0.9c0.2-0.2,0.4-0.3,0.5-0.5
			c0.5-0.4,1-0.9,1.5-1.4c0,0,0.1-0.1,0.1-0.1c0.5-0.5,1-1,1.5-1.5c0.2-0.2,0.3-0.3,0.5-0.5c0.3-0.4,0.6-0.7,1-1.1
			c0.3-0.3,0.6-0.7,0.9-1c0.1-0.1,0.1-0.2,0.2-0.3c0.4-0.5,0.7-0.9,1-1.4c0.1-0.1,0.2-0.3,0.3-0.4c0.2-0.4,0.5-0.7,0.7-1.1
			c0.1-0.2,0.2-0.3,0.3-0.5c0.2-0.3,0.4-0.7,0.6-1c0.1-0.2,0.2-0.3,0.3-0.5c0.2-0.4,0.5-0.9,0.7-1.3c0-0.1,0.1-0.2,0.1-0.2
			c0.3-0.5,0.5-1,0.7-1.5c0.1-0.1,0.1-0.3,0.2-0.4c0.2-0.4,0.3-0.8,0.5-1.1c0.1-0.2,0.1-0.4,0.2-0.6c0.1-0.4,0.3-0.7,0.4-1.1
			c0.1-0.2,0.1-0.3,0.2-0.5c0.1-0.5,0.3-1,0.4-1.5c0-0.1,0-0.1,0-0.2c0.1-0.5,0.2-1.1,0.3-1.7c0-0.2,0.1-0.3,0.1-0.5
			c0.1-0.4,0.1-0.8,0.2-1.2c0-0.2,0-0.4,0.1-0.6c0-0.4,0.1-0.8,0.1-1.2c0-0.2,0-0.4,0-0.5c0-0.6,0-1.1,0-1.7
			c-0.1-12.1-7.5-22.5-18.7-28.6c-0.1,0-0.1-0.1-0.2-0.1C80.3,43.9,73.9,42.9,67.1,43.3z"/>
		<path id="XMLID_153_" class="st1" d="M75.1,27.2c-3.4-0.4-6.7-0.5-10.1-0.3C41.5,28,22.6,42.8,20.2,62
			c-1.4,10.8,2.5,21.6,10.9,30.4c3.8,4,8.3,7.3,13.3,9.9c4.2,1.5,8.7,2.5,13.3,3.1c0.8,0.1,1.6,0.2,2.4,0.2c0.2,0,0.3,0,0.5,0
			c0.6,0,1.2,0.1,1.8,0.1c0.2,0,0.5,0,0.7,0c0.5,0,1.1,0,1.6,0c0.2,0,0.5,0,0.7,0c0.8,0,1.5,0,2.3-0.1c0.9,0,1.8-0.1,2.6-0.2
			c0.3,0,0.5-0.1,0.8-0.1c0.6-0.1,1.3-0.1,1.9-0.2c0.3,0,0.5-0.1,0.8-0.1c0.8-0.1,1.6-0.3,2.4-0.4c0,0,0.1,0,0.1,0
			c0.8-0.2,1.6-0.4,2.5-0.6c0.2-0.1,0.4-0.1,0.7-0.2c0.7-0.2,1.4-0.4,2-0.6c0.2-0.1,0.4-0.1,0.6-0.2c0.8-0.3,1.6-0.5,2.4-0.8
			c0.2-0.1,0.3-0.1,0.5-0.2c0.7-0.3,1.3-0.5,2-0.8c0.2-0.1,0.4-0.2,0.6-0.3c0.8-0.3,1.5-0.7,2.3-1.1c0.1,0,0.1-0.1,0.2-0.1
			c0.6-0.3,1.2-0.6,1.8-0.9c0.2-0.1,0.4-0.2,0.6-0.4c0.4-0.2,0.9-0.5,1.3-0.8c0.2-0.1,0.5-0.3,0.7-0.4c0.4-0.3,0.8-0.5,1.2-0.8
			c0.2-0.1,0.4-0.3,0.6-0.4c0.4-0.3,0.8-0.6,1.3-0.9c0.2-0.1,0.3-0.2,0.5-0.3c0.6-0.4,1.1-0.9,1.6-1.3c0.1-0.1,0.2-0.2,0.3-0.3
			c0.4-0.4,0.8-0.7,1.2-1.1c0.2-0.2,0.3-0.3,0.5-0.5c0.3-0.3,0.6-0.6,0.9-1c0.2-0.2,0.4-0.4,0.5-0.6c0.3-0.3,0.6-0.6,0.9-1
			c0.2-0.2,0.3-0.4,0.5-0.5c0.5-0.6,1-1.2,1.4-1.8c0-0.1,0.1-0.1,0.1-0.2c0.4-0.6,0.8-1.1,1.2-1.7c0.1-0.2,0.2-0.4,0.3-0.5
			c0.3-0.6,0.7-1.1,1-1.7c0.1-0.1,0.1-0.2,0.2-0.3c0.4-0.7,0.7-1.3,1-2c0.1-0.2,0.2-0.4,0.2-0.5c0.2-0.6,0.5-1.1,0.7-1.7
			c0.1-0.2,0.1-0.3,0.2-0.5c0.3-0.7,0.5-1.4,0.7-2.1c0-0.1,0.1-0.3,0.1-0.4c0.2-0.6,0.3-1.2,0.4-1.8c0-0.2,0.1-0.4,0.1-0.6
			c0.1-0.7,0.3-1.5,0.4-2.3c1.4-10.8-2.5-21.6-10.9-30.4c-3.6-3.7-7.8-6.9-12.6-9.4c-0.7-0.2-1.1-0.3-1.1-0.3s0.4,0.1,1.1,0.3
			c-0.3-0.1-0.5-0.3-0.8-0.4C84.2,28.7,79.7,27.7,75.1,27.2z"/>
		<path id="XMLID_152_" class="st1" d="M75.1,27.2c-3.4-0.4-6.7-0.5-10.1-0.3C41.5,28,22.6,42.8,20.2,62
			c-1.4,10.8,2.5,21.6,10.9,30.4c3.8,4,8.3,7.3,13.3,9.9c0.1,0,0.2,0.1,0.3,0.1c-0.4-0.2-0.6-0.3-0.6-0.3s0.2,0.1,0.6,0.3
			c4.1,1.4,8.5,2.5,13,3c0.8,0.1,1.6,0.2,2.4,0.2c0.2,0,0.3,0,0.5,0c0.6,0,1.2,0.1,1.8,0.1c0.2,0,0.5,0,0.7,0c0.5,0,1.1,0,1.6,0
			c0.2,0,0.5,0,0.7,0c0.8,0,1.5,0,2.3-0.1c0.9,0,1.8-0.1,2.6-0.2c0.3,0,0.5-0.1,0.8-0.1c0.6-0.1,1.3-0.1,1.9-0.2
			c0.3,0,0.5-0.1,0.8-0.1c0.8-0.1,1.6-0.3,2.4-0.4c0,0,0.1,0,0.1,0c0.8-0.2,1.6-0.4,2.5-0.6c0.2-0.1,0.4-0.1,0.7-0.2
			c0.7-0.2,1.4-0.4,2-0.6c0.2-0.1,0.4-0.1,0.6-0.2c0.8-0.3,1.6-0.5,2.4-0.8c0.2-0.1,0.3-0.1,0.5-0.2c0.7-0.3,1.3-0.5,2-0.8
			c0.2-0.1,0.4-0.2,0.6-0.3c0.8-0.3,1.5-0.7,2.3-1.1c0.1,0,0.1-0.1,0.2-0.1c0.6-0.3,1.2-0.6,1.8-0.9c0.2-0.1,0.4-0.2,0.6-0.4
			c0.4-0.2,0.9-0.5,1.3-0.8c0.2-0.1,0.5-0.3,0.7-0.4c0.4-0.3,0.8-0.5,1.2-0.8c0.2-0.1,0.4-0.3,0.6-0.4c0.4-0.3,0.8-0.6,1.3-0.9
			c0.2-0.1,0.3-0.2,0.5-0.3c0.6-0.4,1.1-0.9,1.6-1.3c0.1-0.1,0.2-0.2,0.3-0.3c0.4-0.4,0.8-0.7,1.2-1.1c0.2-0.2,0.3-0.3,0.5-0.5
			c0.3-0.3,0.6-0.6,0.9-1c0.2-0.2,0.4-0.4,0.5-0.6c0.3-0.3,0.6-0.6,0.9-1c0.2-0.2,0.3-0.4,0.5-0.5c0.5-0.6,1-1.2,1.4-1.8
			c0-0.1,0.1-0.1,0.1-0.2c0.4-0.6,0.8-1.1,1.2-1.7c0.1-0.2,0.2-0.4,0.3-0.5c0.3-0.6,0.7-1.1,1-1.7c0.1-0.1,0.1-0.2,0.2-0.3
			c0.4-0.7,0.7-1.3,1-2c0.1-0.2,0.2-0.4,0.2-0.5c0.2-0.6,0.5-1.1,0.7-1.7c0.1-0.2,0.1-0.3,0.2-0.5c0.3-0.7,0.5-1.4,0.7-2.1
			c0-0.1,0.1-0.3,0.1-0.4c0.2-0.6,0.3-1.2,0.4-1.8c0-0.2,0.1-0.4,0.1-0.6c0.1-0.7,0.3-1.5,0.4-2.3c1.4-10.8-2.5-21.6-10.9-30.4
			c-3.6-3.7-7.8-6.9-12.6-9.4c-0.3-0.1-0.5-0.3-0.8-0.4C84.2,28.7,79.7,27.7,75.1,27.2z"/>
		
			<linearGradient id="XMLID_55_" gradientUnits="userSpaceOnUse" x1="180.3688" y1="-189.0796" x2="209.0117" y2="-241.5916" gradientTransform="matrix(0.9983 -5.765018e-02 5.765018e-02 0.9983 -87.8383 298.3102)">
			<stop  offset="0" style="stop-color:#82A0CF"/>
			<stop  offset="0.5" style="stop-color:#6594CA"/>
			<stop  offset="1" style="stop-color:#37587B"/>
		</linearGradient>
		<path id="XMLID_151_" class="st2" d="M109.6,40.3c-1.4-1.3-3-2.6-4.6-3.7c-7.6-4.4-13.9-6.2-16.4-6.8c4.9,2.3,9.3,5.2,13.1,8.7
			c8.9,8.3,13.4,18.8,12.7,29.7c-0.1,0.8-0.1,1.5-0.2,2.3c0,0.2-0.1,0.4-0.1,0.6c-0.1,0.6-0.2,1.2-0.3,1.8c0,0.1-0.1,0.3-0.1,0.4
			c-0.2,0.7-0.4,1.5-0.6,2.2c-0.1,0.2-0.1,0.3-0.2,0.5c-0.2,0.6-0.4,1.1-0.6,1.7c-0.1,0.2-0.1,0.4-0.2,0.5c-0.3,0.7-0.6,1.4-0.9,2.1
			c0,0.1-0.1,0.2-0.2,0.3c-0.3,0.6-0.6,1.2-0.9,1.7c-0.1,0.2-0.2,0.4-0.3,0.6c-0.3,0.6-0.7,1.2-1.1,1.8c0,0.1-0.1,0.1-0.1,0.2
			c-0.4,0.6-0.9,1.3-1.3,1.9c-0.1,0.2-0.3,0.4-0.4,0.6c-0.3,0.3-0.5,0.7-0.8,1c-0.2,0.2-0.3,0.4-0.5,0.6c-0.3,0.3-0.6,0.7-0.9,1
			c-0.2,0.2-0.3,0.4-0.5,0.5c-0.4,0.4-0.8,0.8-1.2,1.2c-0.1,0.1-0.2,0.2-0.3,0.3c-0.5,0.5-1,1-1.5,1.4c-0.1,0.1-0.3,0.2-0.4,0.4
			c-0.4,0.3-0.8,0.7-1.2,1c-0.2,0.2-0.4,0.3-0.6,0.5c-0.4,0.3-0.8,0.6-1.1,0.9c-0.2,0.2-0.4,0.3-0.6,0.5c-0.4,0.3-0.8,0.6-1.2,0.8
			c-0.2,0.1-0.4,0.3-0.6,0.4c-0.6,0.4-1.1,0.7-1.7,1c-0.1,0-0.1,0.1-0.2,0.1c-0.7,0.4-1.5,0.8-2.2,1.2c-0.2,0.1-0.4,0.2-0.6,0.3
			c-0.6,0.3-1.3,0.6-1.9,0.9c-0.2,0.1-0.3,0.1-0.5,0.2c-0.8,0.3-1.6,0.7-2.4,1c-0.2,0.1-0.4,0.1-0.6,0.2c-0.7,0.2-1.3,0.5-2,0.7
			c-0.2,0.1-0.4,0.1-0.7,0.2c-0.8,0.2-1.6,0.5-2.4,0.7c0,0-0.1,0-0.1,0c-0.8,0.2-1.6,0.4-2.4,0.6c-0.3,0.1-0.5,0.1-0.8,0.2
			c-0.6,0.1-1.2,0.2-1.9,0.3c-0.3,0-0.5,0.1-0.8,0.1c-0.9,0.1-1.7,0.2-2.6,0.3c-0.8,0.1-1.5,0.1-2.3,0.2c-0.2,0-0.5,0-0.7,0
			c-0.5,0-1.1,0.1-1.6,0.1c-0.2,0-0.5,0-0.7,0c-0.6,0-1.2,0-1.8,0c-0.2,0-0.3,0-0.5,0c-0.8,0-1.6,0-2.4-0.1c-4.6-0.3-9-1-13.2-2.2
			c1.9,0.9,8.2,3.6,20.5,5.9c3.4,0.2,6.8,0.1,10.1-0.2c23.9-2.6,42.2-18.8,43.5-38.7C123.4,59.6,118.8,48.7,109.6,40.3z"/>
		
			<linearGradient id="XMLID_56_" gradientUnits="userSpaceOnUse" x1="141.3727" y1="-207.8167" x2="174.3492" y2="-262.8707" gradientTransform="matrix(0.9983 -5.765018e-02 5.765018e-02 0.9983 -87.8383 298.3102)">
			<stop  offset="0" style="stop-color:#395B7F"/>
			<stop  offset="0.5204" style="stop-color:#6594CA"/>
			<stop  offset="1" style="stop-color:#6594CA"/>
		</linearGradient>
		<path id="XMLID_150_" class="st3" d="M48.3,103.7c-5.2-2.3-9.9-5.4-13.9-9.1C25.5,86.4,21,75.8,21.7,64.9
			C23,45.6,40.9,29.7,64.4,27.2c3.3-0.4,6.7-0.4,10.1-0.2c4.7,0.3,9.2,1.1,13.5,2.3c0.3,0.1,0.5,0.3,0.8,0.4
			c2.5,0.6,8.7,2.4,16.4,6.8c-4-2.9-8.5-5.3-13.4-7.1c0.1,0,0.2,0.1,0.2,0.1l-7.2-2.7c-5.5-2-11.3-3.2-17.4-3.6
			c-0.8,0-1.6-0.1-2.3-0.1c0,0-0.1,0-0.1,0c-0.2,0-0.3,0-0.5,0c-0.6,0-1.2,0-1.8,0c-0.3,0-0.5,0-0.8,0c-0.6,0-1.1,0-1.7,0.1
			c-0.2,0-0.5,0-0.7,0c-0.8,0.1-1.5,0.1-2.3,0.2c-0.9,0.1-1.8,0.2-2.6,0.3c-0.3,0-0.5,0.1-0.8,0.1c-0.6,0.1-1.3,0.2-1.9,0.3
			c-0.3,0.1-0.5,0.1-0.8,0.2c-0.8,0.2-1.5,0.3-2.3,0.5c-0.1,0-0.2,0-0.2,0.1c-0.8,0.2-1.6,0.5-2.5,0.7c-0.1,0-0.2,0-0.2,0.1
			c-0.1,0-0.3,0.1-0.4,0.1c-0.7,0.2-1.4,0.5-2,0.7c-0.2,0.1-0.4,0.2-0.6,0.2c-0.8,0.3-1.6,0.6-2.4,1c-0.1,0.1-0.3,0.1-0.4,0.2
			c-0.7,0.3-1.4,0.6-2,0.9c-0.2,0.1-0.4,0.2-0.6,0.3c-0.7,0.4-1.4,0.7-2.1,1.1c0,0-0.1,0-0.1,0.1c0,0,0,0,0,0
			c-0.7,0.4-1.3,0.8-1.9,1.2c-0.2,0.1-0.4,0.2-0.6,0.4c-0.4,0.3-0.9,0.6-1.3,0.9c-0.2,0.2-0.4,0.3-0.7,0.5c-0.4,0.3-0.8,0.6-1.2,0.9
			c-0.2,0.2-0.4,0.3-0.6,0.5c-0.4,0.3-0.8,0.6-1.2,1c-0.1,0.1-0.3,0.2-0.4,0.3c0,0-0.1,0.1-0.1,0.1c-0.5,0.5-1,0.9-1.5,1.4
			c0,0,0,0,0,0c-0.5,0.5-1,1-1.5,1.5c-0.2,0.2-0.3,0.3-0.4,0.5c-0.3,0.4-0.6,0.7-1,1.1c-0.2,0.2-0.3,0.4-0.5,0.6
			c-0.3,0.3-0.6,0.7-0.8,1.1c-0.1,0.1-0.2,0.2-0.3,0.3c-0.1,0.1-0.1,0.2-0.2,0.2c-0.5,0.6-0.9,1.3-1.4,1.9c0,0,0,0,0,0
			c-0.4,0.7-0.8,1.3-1.2,2c-0.1,0.2-0.2,0.4-0.3,0.6c-0.3,0.6-0.6,1.2-0.9,1.7c-0.1,0.1-0.1,0.2-0.2,0.4c-0.3,0.7-0.6,1.4-0.9,2.1
			c-0.1,0.2-0.1,0.4-0.2,0.5c-0.2,0.6-0.4,1.2-0.6,1.8c-0.1,0.2-0.1,0.4-0.2,0.5c-0.2,0.7-0.4,1.5-0.6,2.2c0,0.1-0.1,0.3-0.1,0.4
			c-0.1,0.6-0.3,1.3-0.4,1.9c0,0.2-0.1,0.4-0.1,0.6c-0.1,0.8-0.2,1.6-0.2,2.4c-0.7,11.2,3.9,22.1,13,30.5c5,4.6,11,8.3,17.7,10.7
			l7.2,2.7c-0.2-0.1-0.5-0.2-0.7-0.3c5.7,2.2,11.8,3.5,18.2,3.9c0,0,0.1,0,0.1,0c-12.3-2.4-18.6-5.1-20.5-5.9
			C48.5,103.8,48.4,103.7,48.3,103.7z"/>
		<linearGradient id="XMLID_57_" gradientUnits="userSpaceOnUse" x1="83.8211" y1="124.6559" x2="83.8211" y2="22.0625">
			<stop  offset="0" style="stop-color:#5C4891"/>
			<stop  offset="0.5" style="stop-color:#5A3A8A"/>
			<stop  offset="1" style="stop-color:#3D2765"/>
		</linearGradient>
		<path id="XMLID_149_" class="st4" d="M107.1,39.1c-2.3-4.7-5.1-8.7-8.3-11.8c-7.3-5.1-12.5-6.3-13.7-6.5
			c5.5,3.3,10.1,8.7,13.5,15.7c5.2,11,6.8,24.7,4.3,38.7c-0.1,0.8-0.3,1.6-0.5,2.4c-0.1,0.3-0.1,0.5-0.2,0.8
			c-0.1,0.5-0.2,1.1-0.4,1.6c-0.1,0.3-0.2,0.6-0.2,0.9c-0.1,0.5-0.2,0.9-0.4,1.4c-0.1,0.3-0.2,0.7-0.3,1c-0.1,0.4-0.3,0.9-0.4,1.3
			c-0.1,0.3-0.2,0.7-0.3,1c-0.1,0.4-0.3,0.8-0.4,1.2c-0.1,0.3-0.3,0.7-0.4,1c-0.1,0.4-0.3,0.8-0.4,1.2c-0.1,0.3-0.3,0.7-0.4,1
			c-0.2,0.4-0.3,0.8-0.5,1.2c-0.1,0.3-0.3,0.7-0.4,1c-0.2,0.4-0.3,0.8-0.5,1.1c-0.2,0.3-0.3,0.6-0.5,1c-0.2,0.4-0.4,0.7-0.5,1.1
			c-0.2,0.3-0.3,0.6-0.5,0.9c-0.2,0.4-0.4,0.7-0.6,1.1c-0.2,0.3-0.4,0.6-0.5,0.9c-0.2,0.3-0.4,0.7-0.6,1c-0.2,0.3-0.4,0.6-0.6,0.9
			c-0.2,0.3-0.4,0.7-0.6,1c-0.2,0.3-0.4,0.6-0.6,0.9c-0.2,0.3-0.4,0.6-0.6,0.9c-0.2,0.3-0.4,0.6-0.6,0.8c-0.2,0.3-0.4,0.6-0.7,0.9
			c-0.2,0.3-0.4,0.5-0.6,0.8c-0.2,0.3-0.5,0.6-0.7,0.9c-0.2,0.3-0.4,0.5-0.7,0.8c-0.2,0.3-0.5,0.6-0.7,0.8c-0.2,0.2-0.4,0.4-0.5,0.6
			c-0.4,0.4-0.7,0.8-1.1,1.2c-0.2,0.2-0.4,0.4-0.6,0.6c-0.4,0.4-0.8,0.8-1.2,1.2c-0.2,0.1-0.3,0.3-0.5,0.4c-0.6,0.5-1.1,1-1.7,1.5
			c-0.1,0.1-0.2,0.1-0.3,0.2c-0.5,0.4-1,0.8-1.5,1.1c-0.2,0.2-0.5,0.4-0.7,0.5c-0.3,0.2-0.5,0.4-0.8,0.5c-0.3,0.2-0.5,0.4-0.8,0.5
			c-0.3,0.2-0.5,0.3-0.8,0.5c-0.3,0.2-0.5,0.3-0.8,0.5c-0.3,0.2-0.5,0.3-0.8,0.4c-0.3,0.2-0.6,0.3-0.8,0.4c-0.3,0.1-0.5,0.3-0.8,0.4
			c-0.3,0.1-0.6,0.3-0.9,0.4c-0.2,0.1-0.5,0.2-0.7,0.3c-0.3,0.1-0.6,0.3-1,0.4c-0.2,0.1-0.4,0.2-0.7,0.3c-0.4,0.1-0.7,0.2-1.1,0.4
			c-0.2,0.1-0.4,0.1-0.6,0.2c-0.5,0.2-1,0.3-1.5,0.4c0,0-0.1,0-0.1,0c-0.5,0.1-1,0.2-1.5,0.3c-0.2,0-0.3,0.1-0.5,0.1
			c-0.4,0.1-0.8,0.1-1.2,0.2c-0.2,0-0.3,0-0.5,0.1c-0.5,0.1-1,0.1-1.6,0.1c-0.5,0-1,0-1.5,0c-0.2,0-0.3,0-0.5,0c-0.3,0-0.7,0-1,0
			c-0.2,0-0.3,0-0.5,0c-0.7-0.1-1.3-0.1-2-0.2c-0.6-0.1-1.3-0.2-1.9-0.4c1,0.7,5,3.4,11,4.8c1.3,0.1,2.7,0.2,4,0.1
			c19.1-0.9,36.9-21.3,41.6-47.5C114,64.2,112.5,50.3,107.1,39.1z"/>
		<linearGradient id="XMLID_58_" gradientUnits="userSpaceOnUse" x1="62.9461" y1="18.8658" x2="62.9461" y2="123.1924">
			<stop  offset="0" style="stop-color:#5C4891"/>
			<stop  offset="0.5" style="stop-color:#5A3A8A"/>
			<stop  offset="1" style="stop-color:#3D2765"/>
		</linearGradient>
		<path id="XMLID_148_" class="st5" d="M54.9,121.1c-14.4-8.6-22.3-30.7-18-54.6c4.6-25.7,22-45.8,40.6-46.6c1.8-0.1,3.7,0,5.5,0.3
			c0.7,0.1,1.3,0.2,2,0.4c0.1,0,0.1,0.1,0.2,0.1c1.2,0.2,6.4,1.4,13.7,6.5c-3-2.9-6.3-5.1-9.9-6.5c0.1,0,0.2,0.1,0.4,0.1l-7.6-3.1
			c-2-0.8-4-1.4-6.2-1.7c-0.7-0.1-1.4-0.2-2.1-0.2c-0.1,0-0.2,0-0.2,0c-0.1,0-0.2,0-0.2,0c-0.4,0-0.7,0-1.1,0c-0.2,0-0.3,0-0.5,0
			c-0.5,0-1,0-1.6,0c-0.5,0-1.1,0.1-1.6,0.1c-0.2,0-0.3,0-0.5,0.1c-0.4,0-0.8,0.1-1.2,0.2c-0.2,0-0.3,0.1-0.5,0.1
			c-0.5,0.1-1,0.2-1.5,0.3c0,0,0,0-0.1,0c0,0,0,0,0,0c-0.6,0.1-1.1,0.3-1.7,0.5c-0.2,0.1-0.3,0.1-0.5,0.2c-0.4,0.1-0.8,0.2-1.2,0.4
			c-0.2,0.1-0.4,0.2-0.6,0.2c-0.3,0.1-0.7,0.3-1,0.4c-0.2,0.1-0.5,0.2-0.7,0.3c-0.3,0.1-0.5,0.2-0.8,0.3c-0.1,0-0.1,0.1-0.2,0.1
			c-0.3,0.1-0.5,0.3-0.8,0.4c-0.3,0.1-0.6,0.3-0.8,0.4c-0.3,0.1-0.5,0.3-0.8,0.5c-0.3,0.2-0.6,0.3-0.8,0.5c-0.3,0.2-0.5,0.3-0.8,0.5
			c-0.3,0.2-0.5,0.4-0.8,0.5c-0.3,0.2-0.5,0.4-0.8,0.5c-0.2,0.1-0.4,0.3-0.6,0.4c-0.1,0-0.1,0.1-0.2,0.1c-0.6,0.4-1.2,0.9-1.7,1.3
			c0,0,0,0-0.1,0c-0.6,0.5-1.2,1-1.7,1.5c-0.2,0.2-0.4,0.3-0.5,0.5c-0.4,0.4-0.8,0.8-1.2,1.2c-0.2,0.2-0.4,0.4-0.6,0.6
			c-0.4,0.4-0.8,0.8-1.2,1.2c-0.1,0.1-0.2,0.2-0.4,0.4c-0.1,0.1-0.1,0.1-0.2,0.2c-0.2,0.3-0.5,0.6-0.7,0.8c-0.2,0.3-0.5,0.5-0.7,0.8
			c-0.2,0.3-0.5,0.6-0.7,0.9c-0.2,0.3-0.4,0.5-0.6,0.8c-0.2,0.3-0.4,0.6-0.7,0.9c-0.2,0.3-0.4,0.6-0.6,0.9c-0.2,0.3-0.4,0.6-0.6,1
			c-0.2,0.3-0.4,0.6-0.6,0.9c-0.2,0.3-0.4,0.7-0.6,1c-0.2,0.3-0.4,0.6-0.6,0.9c-0.2,0.3-0.4,0.7-0.6,1c-0.2,0.3-0.4,0.6-0.5,0.9
			c-0.2,0.4-0.4,0.7-0.6,1.1c-0.2,0.3-0.3,0.6-0.5,1c-0.2,0.4-0.4,0.7-0.5,1.1c-0.2,0.3-0.3,0.7-0.5,1c-0.2,0.4-0.3,0.8-0.5,1.1
			c-0.1,0.3-0.3,0.7-0.4,1c-0.2,0.4-0.3,0.8-0.5,1.2c-0.1,0.3-0.3,0.7-0.4,1c-0.2,0.4-0.3,0.8-0.5,1.2c-0.1,0.3-0.3,0.7-0.4,1
			c-0.2,0.4-0.3,0.9-0.4,1.3c-0.1,0.3-0.2,0.7-0.3,1c-0.1,0.4-0.3,0.9-0.4,1.3c-0.1,0.3-0.2,0.7-0.3,1c-0.1,0.5-0.3,1-0.4,1.4
			c-0.1,0.3-0.2,0.6-0.2,0.9c-0.1,0.5-0.3,1.1-0.4,1.6c-0.1,0.3-0.1,0.5-0.2,0.8c-0.2,0.8-0.3,1.6-0.5,2.5
			c-4.7,26.4,5.2,50.6,22.3,57.6l7.6,3.1c-0.3-0.1-0.6-0.3-0.9-0.4c2.2,1,4.5,1.7,6.9,2.1c0.5,0.1,1.1,0.2,1.7,0.2
			C59.9,124.5,55.9,121.8,54.9,121.1C54.9,121.1,54.9,121.1,54.9,121.1z"/>
		
			<linearGradient id="XMLID_59_" gradientUnits="userSpaceOnUse" x1="178.1392" y1="-189.8117" x2="206.1138" y2="-241.0984" gradientTransform="matrix(0.9983 -5.765018e-02 5.765018e-02 0.9983 -87.8383 298.3102)">
			<stop  offset="0" style="stop-color:#82A0CF"/>
			<stop  offset="0.5" style="stop-color:#6594CA"/>
			<stop  offset="1" style="stop-color:#37587B"/>
		</linearGradient>
		<path id="XMLID_147_" class="st6" d="M109.3,91.7c1.2-4.2,1.5-7.4,1.3-9.9c-0.1,0.2-0.2,0.4-0.3,0.6c-0.1,0.2-0.2,0.4-0.3,0.6
			c-0.3,0.6-0.7,1.2-1.1,1.8c0,0.1-0.1,0.1-0.1,0.2c-0.4,0.6-0.9,1.3-1.3,1.9c-0.1,0.2-0.3,0.4-0.4,0.6c-0.3,0.3-0.5,0.7-0.8,1
			c-0.2,0.2-0.3,0.4-0.5,0.6c-0.3,0.3-0.6,0.7-0.9,1c-0.2,0.2-0.3,0.4-0.5,0.5c-0.4,0.4-0.8,0.8-1.2,1.2c-0.1,0.1-0.2,0.2-0.3,0.3
			c-0.5,0.5-1,1-1.5,1.4c-0.1,0.1-0.3,0.2-0.4,0.4c-0.4,0.3-0.8,0.7-1.2,1c-0.2,0.2-0.4,0.3-0.6,0.5c-0.4,0.3-0.8,0.6-1.1,0.9
			c-0.2,0.2-0.4,0.3-0.6,0.5c-0.4,0.3-0.8,0.6-1.2,0.8c-0.2,0.1-0.4,0.3-0.6,0.4c-0.6,0.4-1.1,0.7-1.7,1c-0.1,0-0.1,0.1-0.2,0.1
			c-0.7,0.4-1.5,0.8-2.2,1.2c-0.2,0.1-0.4,0.2-0.6,0.3c-0.6,0.3-1.3,0.6-1.9,0.9c-0.2,0.1-0.3,0.1-0.5,0.2c-0.8,0.3-1.6,0.7-2.4,1
			c-0.2,0.1-0.4,0.1-0.6,0.2c-0.7,0.2-1.3,0.5-2,0.7c-0.2,0.1-0.4,0.1-0.7,0.2c-0.8,0.2-1.6,0.5-2.4,0.7c0,0-0.1,0-0.1,0
			c-0.8,0.2-1.6,0.4-2.4,0.6c-0.3,0.1-0.5,0.1-0.8,0.2c-0.6,0.1-1.2,0.2-1.9,0.3c-0.3,0-0.5,0.1-0.8,0.1c-0.9,0.1-1.7,0.2-2.6,0.3
			c-0.8,0.1-1.5,0.1-2.3,0.2c-0.2,0-0.5,0-0.7,0c-0.5,0-1.1,0.1-1.6,0.1c-0.2,0-0.5,0-0.7,0c-0.6,0-1.2,0-1.8,0c-0.2,0-0.3,0-0.5,0
			c-0.8,0-1.6,0-2.4-0.1c-4.6-0.3-9-1-13.2-2.2c1.9,0.9,8.2,3.6,20.5,5.9c3.4,0.2,6.8,0.1,10.1-0.2c10.9-1.2,20.5-5.2,28-11
			C107.9,96.4,108.6,94.2,109.3,91.7z"/>
		
			<linearGradient id="XMLID_60_" gradientUnits="userSpaceOnUse" x1="130.7295" y1="-216.5527" x2="163.1188" y2="-270.6264" gradientTransform="matrix(0.9983 -5.765018e-02 5.765018e-02 0.9983 -87.8383 298.3102)">
			<stop  offset="0" style="stop-color:#395B7F"/>
			<stop  offset="0.5204" style="stop-color:#6594CA"/>
			<stop  offset="1" style="stop-color:#6594CA"/>
		</linearGradient>
		<path id="XMLID_146_" class="st7" d="M71.5,23.7c-1.4-0.2-2.8-0.3-4.3-0.4c-0.8,0-1.6-0.1-2.3-0.1c0,0-0.1,0-0.1,0
			c-0.2,0-0.3,0-0.5,0c-0.6,0-1.2,0-1.8,0c-0.3,0-0.5,0-0.8,0c-0.6,0-1.1,0-1.7,0.1c-0.2,0-0.5,0-0.7,0c-0.8,0.1-1.5,0.1-2.3,0.2
			c-0.9,0.1-1.8,0.2-2.6,0.3c-0.3,0-0.5,0.1-0.8,0.1c-0.6,0.1-1.3,0.2-1.9,0.3c-0.3,0.1-0.5,0.1-0.8,0.2c-0.8,0.2-1.5,0.3-2.3,0.5
			c-0.1,0-0.2,0-0.2,0.1c-0.8,0.2-1.6,0.5-2.5,0.7c-0.1,0-0.2,0-0.2,0.1c-0.1,0-0.3,0.1-0.4,0.1c-0.7,0.2-1.4,0.5-2,0.7
			c-0.2,0.1-0.4,0.2-0.6,0.2c-0.8,0.3-1.6,0.6-2.4,1c-0.1,0.1-0.3,0.1-0.4,0.2c-0.7,0.3-1.4,0.6-2,0.9c-0.2,0.1-0.4,0.2-0.5,0.3
			l0.5,8c7.2-5.4,16.4-9,26.6-10.1c2.4-0.3,4.9-0.4,7.4-0.3L71.5,23.7z"/>
		
			<linearGradient id="XMLID_61_" gradientUnits="userSpaceOnUse" x1="183.753" y1="266.2238" x2="183.753" y2="315.0766" gradientTransform="matrix(1.0155 1.339925e-02 1.339925e-02 1.0946 -104.3782 -230.3291)">
			<stop  offset="0" style="stop-color:#CB6990"/>
			<stop  offset="0.5" style="stop-color:#BF3079"/>
			<stop  offset="1" style="stop-color:#74214D"/>
		</linearGradient>
		<path id="XMLID_145_" class="st8" d="M80.1,115.8c12.7-0.7,23.4-7.3,28.1-18.8c7.7-19-4.3-44.4-26.7-56.6C75.3,37,69,35,62.9,34.3
			c-0.1,0-0.1,0-0.2,0c-0.8-0.2-3.9-0.7-10.4-1c0.1-0.1,0.1-0.1,0.1-0.1c2.3-0.3,4.6-0.4,7-0.3c-0.2,0-0.3,0-0.5,0l7.7,0.3
			c0.8,0,1.7,0.1,2.5,0.2c0.2,0,0.5,0,0.7,0.1c0.7,0.1,1.3,0.2,2,0.3c0.2,0,0.4,0.1,0.6,0.1c0.8,0.1,1.7,0.3,2.5,0.5
			c0.2,0,0.4,0.1,0.6,0.1c0.7,0.2,1.4,0.3,2,0.5c0.2,0.1,0.5,0.1,0.7,0.2c0.9,0.2,1.7,0.5,2.6,0.8c0,0,0,0,0,0
			c0.7,0.2,1.4,0.5,2,0.7c0.1,0,0.2,0.1,0.4,0.2c0.7,0.3,1.4,0.6,2.1,0.9c0.3,0.2,0.7,0.3,1,0.5c1,0.5,2.1,1,3.1,1.6
			c0.8,0.4,1.6,0.9,2.3,1.3c0.2,0.1,0.5,0.3,0.7,0.5c0.5,0.3,1,0.6,1.5,1c0.3,0.2,0.5,0.4,0.8,0.6c0.5,0.3,0.9,0.6,1.4,1
			c0.3,0.2,0.5,0.4,0.8,0.6c0.5,0.3,0.9,0.7,1.4,1.1c0.2,0.1,0.3,0.3,0.5,0.4c0.1,0.1,0.1,0.1,0.2,0.2c0.7,0.6,1.4,1.2,2.1,1.8
			c0.1,0.1,0.2,0.2,0.3,0.3c0.6,0.5,1.2,1.1,1.7,1.7c0.2,0.2,0.4,0.4,0.6,0.6c0.5,0.5,0.9,1,1.4,1.5c0.2,0.2,0.4,0.4,0.5,0.6
			c0.6,0.7,1.2,1.4,1.8,2.1c0,0,0,0,0,0c0,0.1,0.1,0.1,0.1,0.2c0.5,0.6,0.9,1.2,1.4,1.8c0.2,0.2,0.3,0.4,0.5,0.7
			c0.3,0.4,0.6,0.9,0.9,1.3c0.2,0.3,0.3,0.5,0.5,0.8c0.3,0.4,0.5,0.8,0.8,1.3c0.2,0.3,0.3,0.6,0.5,0.8c0.2,0.4,0.5,0.9,0.7,1.3
			c0.1,0.2,0.2,0.3,0.3,0.5c0.1,0.1,0.1,0.2,0.2,0.3c0.2,0.4,0.5,0.9,0.7,1.3c0.1,0.3,0.3,0.5,0.4,0.8c0.2,0.5,0.5,1,0.7,1.6
			c0.1,0.2,0.2,0.4,0.3,0.6c0.3,0.7,0.6,1.4,0.8,2.2c0.1,0.2,0.1,0.3,0.2,0.5c0.2,0.6,0.4,1.1,0.6,1.7c0,0.1,0,0.1,0.1,0.2
			c0.2,0.5,0.3,1.1,0.5,1.6c0,0,0,0,0,0c0.2,0.6,0.3,1.2,0.5,1.9c0,0.2,0.1,0.4,0.1,0.6c0.1,0.4,0.2,0.9,0.3,1.3
			c0,0.2,0.1,0.4,0.1,0.7c0.1,0.4,0.1,0.9,0.2,1.3c0,0.2,0.1,0.4,0.1,0.6c0.1,0.6,0.1,1.2,0.2,1.8c0,0,0,0,0,0
			c0,0.6,0.1,1.2,0.1,1.8c0,0.2,0,0.4,0,0.6c0,0.4,0,0.9,0,1.3c0,0.2,0,0.4,0,0.6c0,0.4,0,0.8-0.1,1.3c0,0.2,0,0.4,0,0.6
			c-0.1,0.6-0.1,1.2-0.2,1.8c0,0,0,0,0,0c-0.1,0.6-0.2,1.2-0.3,1.8c0,0.2-0.1,0.4-0.1,0.6c-0.1,0.4-0.2,0.8-0.3,1.2
			c-0.1,0.2-0.1,0.4-0.2,0.6c-0.1,0.4-0.2,0.8-0.4,1.2c-0.1,0.2-0.1,0.4-0.2,0.5c-0.2,0.6-0.4,1.1-0.6,1.7
			c-5.2,13-18.1,20-32.8,19.5l-7.7-0.3c0.1,0,0.2,0,0.3,0c-4.6-0.1-9.4-1-14.3-2.6c8.3,1.6,15,1.6,17.5,1.4
			C79.9,115.7,80,115.8,80.1,115.8z"/>
	</g>
	<g id="XMLID_81_">
		<g id="XMLID_83_">
			<path id="XMLID_142_" class="st9" d="M161.5,60c0,3.4-0.9,5.9-2.7,7.7c-1.9,1.9-4.2,2.9-6.9,2.9c-2.7,0-5-0.9-6.9-2.8
				c-1.9-1.9-2.8-4-2.8-6.2l2-0.8c0.4,2.4,1.4,4.2,2.8,5.4c1.2,1,2.6,1.5,4.1,1.5c0.3,0,0.5,0,0.8-0.1c1.8,0,3.4-0.7,4.8-2
				c1.2-1.2,1.8-3.2,1.8-6V16.8h3V60z"/>
			<path id="XMLID_140_" class="st9" d="M203.4,16.8h3v38.3c-0.6,4.1-2.3,7.5-5.1,10.3c-3.4,3.4-7.5,5.1-12.3,5.1
				c-4.8,0-8.9-1.7-12.3-5.1c-3.4-3.4-5.1-7.5-5.1-12.3V16.8h3v36.3c0,4,1.4,7.3,4.2,10.1c2.8,2.8,6.2,4.2,10.2,4.2
				s7.4-1.4,10.2-4.2c2.8-2.8,4.2-6.2,4.2-10.1V16.8z"/>
			<path id="XMLID_137_" class="st9" d="M242.1,49.7h-18.4l-7.4,20.4h-3.2l19.8-54.5l19.8,54.5h-3.2L242.1,49.7z M241,46.7
				l-8.1-22.3l-8.1,22.3H241z"/>
			<path id="XMLID_135_" class="st9" d="M259.4,16.8h3.3L290,64.2V16.8h3v53.3h-3l-27.7-47.8v47.8h-3V16.8z"/>
			<path id="XMLID_132_" class="st9" d="M329.6,16.9h0.2c8.8,0,15.6,2.4,20.4,7.3c5.3,5.3,8,11.8,8,19.3c0,7.5-2.7,14-8,19.3
				c-4.8,4.8-11.6,7.3-20.4,7.3h-0.2v0.1h-3V16.8L329.6,16.9L329.6,16.9z M329.6,20v47h0.2c7.9,0,14-2.1,18.2-6.4
				c4.7-4.7,7.1-10.4,7.1-17.1c0-6.7-2.4-12.4-7.1-17.1c-4.2-4.2-10.3-6.4-18.2-6.4H329.6z"/>
			<path id="XMLID_129_" class="st9" d="M392.2,49.7h-18.4l-7.4,20.4h-3.2L383,15.6l19.8,54.5h-3.2L392.2,49.7z M391.1,46.7
				L383,24.3l-8.1,22.3H391.1z"/>
			<path id="XMLID_127_" class="st9" d="M409.3,16.8l16.6,45.7l16.6-45.7h3.2l-19.8,54.5l-19.8-54.5H409.3z"/>
			<path id="XMLID_125_" class="st9" d="M456.1,16.8v53.3h-3V16.8H456.1z"/>
			<path id="XMLID_122_" class="st9" d="M469.7,16.9h0.2c8.8,0,15.6,2.4,20.4,7.3c5.3,5.3,8,11.8,8,19.3c0,7.5-2.7,14-8,19.3
				c-4.8,4.8-11.6,7.3-20.4,7.3h-0.2v0.1h-3V16.8L469.7,16.9L469.7,16.9z M469.7,20v47h0.2c7.9,0,14-2.1,18.2-6.4
				c4.7-4.7,7.1-10.4,7.1-17.1c0-6.7-2.4-12.4-7.1-17.1c-4.2-4.2-10.3-6.4-18.2-6.4H469.7z"/>
			<path id="XMLID_118_" class="st9" d="M147.3,75.9c1.7,0,3.1,0.6,4.3,1.8s1.8,2.6,1.8,4.3c0,1.7-0.9,3.3-2.6,4.8
				c1.5,0.3,3,1.2,4.4,2.7c2.2,2.2,3.3,4.9,3.3,8c0,3.1-1.1,5.8-3.3,8.1c-2,2.1-4.5,3.2-7.3,3.2v0h-6.4v-33H147.3z M143.3,77.7v8.4
				h4.5c1-0.1,1.9-0.5,2.6-1.2c0.8-0.8,1.3-1.8,1.3-3c0-1.2-0.4-2.3-1.3-3.1s-1.9-1.2-3.1-1.2H143.3z M143.3,88.1V107h4.5v0
				c2.3-0.2,4.3-1.1,5.9-2.8c1.8-1.9,2.7-4.1,2.7-6.7c0-2.6-0.9-4.8-2.7-6.6s-4-2.7-6.6-2.7H143.3z"/>
			<path id="XMLID_115_" class="st9" d="M179.3,96.2h-11.4l-4.6,12.6h-2l12.3-33.8l12.3,33.8h-2L179.3,96.2z M178.7,94.4l-5-13.8
				l-5,13.8H178.7z"/>
			<path id="XMLID_112_" class="st9" d="M198.1,97.4c-0.2,0-0.4,0-0.6,0h-5.6v11.4H190v-33h8.7c2.5,0.3,4.7,1.4,6.4,3.2
				c2.1,2.1,3.2,4.6,3.2,7.6c0,3-1.1,5.5-3.2,7.6c-1.5,1.5-3.1,2.4-5,2.9l7.6,11.7h-2.3L198.1,97.4z M191.9,77.7v17.8h5.6
				c2.4,0,4.5-0.9,6.3-2.6c1.7-1.7,2.6-3.8,2.6-6.3c0-2.5-0.9-4.6-2.6-6.3c-1.7-1.7-3.8-2.6-6.3-2.6H191.9z"/>
			<path id="XMLID_109_" class="st9" d="M220.5,97.4c-0.2,0-0.4,0-0.6,0h-5.6v11.4h-1.9v-33h8.7c2.5,0.3,4.7,1.4,6.4,3.2
				c2.1,2.1,3.2,4.6,3.2,7.6c0,3-1.1,5.5-3.2,7.6c-1.5,1.5-3.1,2.4-5,2.9l7.6,11.7h-2.3L220.5,97.4z M214.4,77.7v17.8h5.6
				c2.4,0,4.5-0.9,6.3-2.6c1.7-1.7,2.6-3.8,2.6-6.3c0-2.5-0.9-4.6-2.6-6.3c-1.7-1.7-3.8-2.6-6.3-2.6H214.4z"/>
			<path id="XMLID_106_" class="st9" d="M250.9,96.2h-11.4l-4.6,12.6h-2l12.3-33.8l12.3,33.8h-2L250.9,96.2z M250.2,94.4l-5-13.8
				l-5,13.8H250.2z"/>
			<path id="XMLID_104_" class="st9" d="M261.6,75.9h2l17,29.4V75.9h1.9v33h-1.9l-17.1-29.6v29.6h-1.9V75.9z"/>
			<path id="XMLID_102_" class="st9" d="M315,103.6l1.4,1.3c-3.2,2.9-7,4.4-11.4,4.4c-4.7,0-8.7-1.6-12-4.9c-3.3-3.3-4.9-7.3-4.9-12
				c0-4.7,1.6-8.6,4.9-11.9c3.3-3.3,7.3-5,12-5c4.4,0,8.1,1.5,11.4,4.4l-1.4,1.3c-2.8-2.5-6.2-3.8-10-3.8c-4.1,0-7.7,1.5-10.6,4.4
				c-2.9,2.9-4.4,6.5-4.4,10.6c0,4.2,1.5,7.7,4.4,10.6c2.9,2.9,6.5,4.4,10.6,4.4C308.8,107.4,312.1,106.1,315,103.6z"/>
			<path id="XMLID_99_" class="st9" d="M349.9,80.3c3.3,3.3,5,7.3,5,12s-1.7,8.7-5,12s-7.3,5-12,5s-8.7-1.7-12-5
				c-3.3-3.3-5-7.3-5-12s1.7-8.7,5-12c3.3-3.3,7.3-5,12-5S346.6,77,349.9,80.3z M338,77.3c-4.2,0-7.7,1.5-10.6,4.4
				s-4.4,6.5-4.4,10.6s1.5,7.7,4.4,10.6c2.9,2.9,6.5,4.4,10.6,4.4c4.2,0,7.7-1.5,10.6-4.4c2.9-2.9,4.4-6.5,4.4-10.6
				s-1.5-7.7-4.4-10.6C345.7,78.7,342.1,77.3,338,77.3z"/>
			<path id="XMLID_95_" class="st9" d="M381,75.9c1.7,0,3.1,0.6,4.3,1.8s1.8,2.6,1.8,4.3c0,1.7-0.9,3.3-2.6,4.8
				c1.5,0.3,3,1.2,4.4,2.7c2.2,2.2,3.3,4.9,3.3,8c0,3.1-1.1,5.8-3.3,8.1c-2,2.1-4.5,3.2-7.3,3.2v0h-6.4v-33H381z M377,77.7v8.4h4.5
				c1-0.1,1.9-0.5,2.6-1.2c0.8-0.8,1.3-1.8,1.3-3c0-1.2-0.4-2.3-1.3-3.1s-1.9-1.2-3.1-1.2H377z M377,88.1V107h4.5v0
				c2.3-0.2,4.3-1.1,5.9-2.8c1.8-1.9,2.7-4.1,2.7-6.7c0-2.6-0.9-4.8-2.7-6.6c-1.8-1.8-4-2.7-6.6-2.7H377z"/>
			<path id="XMLID_92_" class="st9" d="M425.6,80.3c3.3,3.3,5,7.3,5,12s-1.7,8.7-5,12s-7.3,5-12,5s-8.7-1.7-12-5s-5-7.3-5-12
				s1.7-8.7,5-12s7.3-5,12-5S422.3,77,425.6,80.3z M413.6,77.3c-4.2,0-7.7,1.5-10.6,4.4s-4.4,6.5-4.4,10.6S400,100,403,103
				c2.9,2.9,6.5,4.4,10.6,4.4s7.7-1.5,10.6-4.4c2.9-2.9,4.4-6.5,4.4-10.6s-1.5-7.7-4.4-10.6C421.3,78.7,417.7,77.3,413.6,77.3z"/>
			<path id="XMLID_89_" class="st9" d="M444.2,97.4c-0.2,0-0.4,0-0.6,0h-5.6v11.4h-1.9v-33h8.7c2.5,0.3,4.7,1.4,6.4,3.2
				c2.1,2.1,3.2,4.6,3.2,7.6c0,3-1.1,5.5-3.2,7.6c-1.5,1.5-3.1,2.4-5,2.9l7.6,11.7h-2.3L444.2,97.4z M438.1,77.7v17.8h5.6
				c2.4,0,4.5-0.9,6.3-2.6c1.7-1.7,2.6-3.8,2.6-6.3c0-2.5-0.9-4.6-2.6-6.3c-1.7-1.7-3.8-2.6-6.3-2.6H438.1z"/>
			<path id="XMLID_87_" class="st9" d="M470,102.6c0,2.1-0.6,3.7-1.7,4.8c-1.2,1.2-2.6,1.8-4.2,1.8c-1.7,0-3.1-0.6-4.2-1.8
				c-1.2-1.2-1.8-2.5-1.8-3.9l1.2-0.5c0.3,1.5,0.9,2.6,1.8,3.3c0.7,0.6,1.6,0.9,2.5,0.9c0.2,0,0.3,0,0.5,0c1.1,0,2.1-0.4,2.9-1.2
				c0.7-0.7,1.1-2,1.1-3.7V75.9h1.9V102.6z"/>
			<path id="XMLID_84_" class="st9" d="M492.3,96.2h-11.4l-4.6,12.6h-2l12.3-33.8l12.3,33.8h-2L492.3,96.2z M491.6,94.4l-5-13.8
				l-5,13.8H491.6z"/>
		</g>
		<text id="XMLID_82_" transform="matrix(1 0 0 1 140.2608 123.4179)" class="st9 st10 st11">ASESOR EN GOBIERNO CORPORATIVO IT Y ARQUITECTURA EMPRESARIAL</text>
	</g>
</g>
</svg>
